<svg width="20" height="19" viewBox="0 0 20 19" fill="none" xmlns="http://www.w3.org/2000/svg">
<path fill-rule="evenodd" clip-rule="evenodd" d="M9.74163 15.4259C9.90053 15.33 10.0995 15.33 10.2584 15.4259L15.1655 18.3877C15.5442 18.6162 16.0113 18.2767 15.9108 17.846L14.6086 12.2639C14.5664 12.0832 14.6278 11.8939 14.7681 11.7724L19.1043 8.01594C19.4386 7.72634 19.2599 7.17721 18.8192 7.13982L13.1104 6.65549C12.9256 6.63981 12.7647 6.52314 12.6923 6.35239L10.4604 1.08619C10.2881 0.679672 9.71193 0.679671 9.53964 1.08618L7.30766 6.35239C7.23529 6.52314 7.07436 6.63981 6.88957 6.65549L1.18081 7.13982C0.740101 7.17721 0.561398 7.72634 0.895697 8.01594L5.2319 11.7724C5.37218 11.8939 5.4336 12.0832 5.39144 12.2639L4.08921 17.846C3.98873 18.2767 4.45584 18.6162 4.8345 18.3877L9.74163 15.4259Z" stroke="white" stroke-opacity="0.87"/>
</svg>
